<svg xmlns="http://www.w3.org/2000/svg" xmlns:xlink="http://www.w3.org/1999/xlink" width="497" zoomAndPan="magnify" viewBox="0 0 372.75 167.999997" height="224" preserveAspectRatio="xMidYMid meet" version="1.0"><defs><filter x="0%" y="0%" width="100%" height="100%" id="367880ef49"><feColorMatrix values="0 0 0 0 1 0 0 0 0 1 0 0 0 0 1 0 0 0 1 0" color-interpolation-filters="sRGB"/></filter><g/><clipPath id="bac4cf5c7f"><path d="M 129 3 L 326 3 L 326 167.941406 L 129 167.941406 Z M 129 3 " clip-rule="nonzero"/></clipPath><mask id="6cb7b12caa"><g filter="url(#367880ef49)"><rect x="-37.275" width="447.3" fill="#000000" y="-16.8" height="201.599996" fill-opacity="0.68"/></g></mask><clipPath id="47bd60a492"><path d="M 0.273438 0.652344 L 111 0.652344 L 111 164 L 0.273438 164 Z M 0.273438 0.652344 " clip-rule="nonzero"/></clipPath><clipPath id="8375296925"><path d="M 85 1 L 196 1 L 196 164.195312 L 85 164.195312 Z M 85 1 " clip-rule="nonzero"/></clipPath><clipPath id="9296782c60"><rect x="0" width="197" y="0" height="165"/></clipPath><clipPath id="0122bdd960"><path d="M 47 3 L 244 3 L 244 167.941406 L 47 167.941406 Z M 47 3 " clip-rule="nonzero"/></clipPath><mask id="5fd6599f50"><g filter="url(#367880ef49)"><rect x="-37.275" width="447.3" fill="#000000" y="-16.8" height="201.599996" fill-opacity="0.54"/></g></mask><clipPath id="8a9ce02b0f"><path d="M 0.25 0.652344 L 112 0.652344 L 112 164 L 0.25 164 Z M 0.25 0.652344 " clip-rule="nonzero"/></clipPath><clipPath id="b753629ecd"><path d="M 85 1 L 196 1 L 196 164.195312 L 85 164.195312 Z M 85 1 " clip-rule="nonzero"/></clipPath><clipPath id="e673ef0353"><rect x="0" width="197" y="0" height="165"/></clipPath></defs><g clip-path="url(#bac4cf5c7f)"><g mask="url(#6cb7b12caa)"><g transform="matrix(1, 0, 0, 1, 129, 3)"><g clip-path="url(#9296782c60)"><g clip-path="url(#47bd60a492)"><path fill="#7ed957" d="M 31.425781 89.726562 C 29.652344 92.390625 29.042969 90.394531 28.585938 87.773438 L 22.015625 77.296875 L 24.503906 77.832031 L 24.503906 77.121094 L 22.015625 75.878906 L 18.820312 63.625 L 16.6875 64.15625 L 16.511719 61.136719 L 15.800781 54.746094 C 14.1875 36.535156 -4.074219 53.203125 1.59375 56.519531 C 3.105469 60.011719 3.460938 63.503906 9.40625 66.996094 C 12.085938 71.433594 12.265625 77.65625 19.175781 79.070312 L 20.773438 79.960938 C 19.53125 84.699219 21.710938 88.414062 27.164062 91.148438 C 28.214844 93.515625 29.050781 95.882812 26.808594 98.25 L 28.230469 98.960938 L 26.808594 100.378906 L 26.632812 104.109375 L 27.875 105.886719 L 27.519531 107.304688 L 28.410156 108.90625 L 27.699219 111.035156 L 28.054688 112.8125 L 34.269531 116.363281 L 32.847656 113.875 L 38.53125 116.894531 L 35.511719 116.363281 L 37.996094 119.027344 C 35.433594 123.765625 34.683594 128.273438 37.464844 132.34375 L 37.109375 135.894531 L 36.042969 135.007812 C 32.621094 142.265625 37.375 151.75 41.015625 160.933594 L 45.988281 161.113281 L 49.363281 163.777344 L 54.867188 163.777344 L 61.792969 159.335938 L 67.296875 157.382812 L 71.382812 159.160156 L 74.402344 158.625 L 74.402344 159.871094 L 79.195312 159.515625 L 75.820312 158.625 L 76.710938 157.382812 L 79.550781 158.09375 L 82.570312 157.207031 L 83.457031 154.363281 L 82.746094 153.121094 L 83.28125 151.878906 L 87.71875 151.878906 L 85.765625 152.765625 L 85.765625 153.832031 L 84.523438 153.832031 L 85.589844 154.71875 L 83.636719 154.71875 L 82.570312 157.382812 L 84.34375 157.382812 L 84.699219 160.226562 L 87.007812 160.226562 L 87.1875 157.5625 L 91.269531 155.074219 L 91.804688 157.382812 L 97.308594 153.652344 L 95.886719 152.589844 L 97.664062 151.167969 L 96.597656 149.746094 L 94.820312 149.746094 L 94.644531 151.347656 L 84.699219 142.289062 L 84.167969 140.335938 L 84.167969 136.785156 L 84.523438 134.121094 L 80.4375 130.214844 L 78.128906 125.417969 L 78.679688 122.578125 L 84.523438 122.402344 L 84.523438 121.511719 L 85.25 122.558594 L 86.121094 122.578125 L 88.613281 122.953125 L 91.804688 117.429688 L 92.691406 116.007812 L 98.238281 109.074219 L 98.730469 105.886719 L 95 101.625 L 95 97.007812 L 93.757812 97.007812 L 92.867188 95.765625 L 88.429688 96.652344 L 88.785156 98.25 L 83.8125 102.15625 L 80.792969 104.996094 L 78.664062 107.128906 L 78.308594 110.148438 L 76 112.632812 L 77.597656 114.941406 L 77.597656 117.074219 L 76.175781 119.738281 L 77.597656 120.269531 L 77.773438 122.222656 L 75.644531 126.308594 L 73.691406 131.988281 L 71.914062 136.429688 L 70.671875 139.804688 C 70.566406 135.378906 68.074219 132.859375 64.632812 131.101562 C 56.433594 131.273438 57.839844 125.328125 56.464844 121.15625 L 52.203125 116.71875 L 48.828125 112.988281 L 48.652344 111.035156 L 52.203125 104.644531 L 56.289062 103.042969 L 59.839844 105.175781 L 63.214844 104.644531 L 67.476562 102.335938 L 69.074219 99.492188 L 71.382812 99.492188 L 73.867188 101.800781 L 76.710938 102.867188 L 78.839844 100.914062 L 80.261719 101.269531 L 80.792969 105.351562 L 82.570312 104.644531 L 82.570312 101.089844 L 84.167969 99.671875 L 88.429688 96.652344 L 92.867188 95.941406 C 98.582031 92.152344 97.375 88.363281 96.597656 84.578125 L 93.757812 76.054688 L 93.757812 73.210938 L 96.242188 72.144531 L 96.773438 70.015625 L 96.242188 68.773438 L 97.128906 66.285156 L 98.550781 63.800781 L 91.625 42.847656 L 91.449219 47.285156 L 89.851562 47.640625 L 88.074219 55.808594 L 87.007812 62.558594 L 87.007812 67.882812 L 88.785156 71.257812 L 91.449219 72.5 L 93.578125 73.390625 L 93.757812 76.050781 L 92.335938 75.34375 L 87.898438 73.390625 L 86.652344 74.453125 L 84.878906 74.097656 L 83.8125 71.4375 L 81.503906 71.4375 L 76 71.789062 L 72.980469 71.789062 L 71.914062 67.527344 L 74.578125 63.089844 C 77.90625 59.066406 77.695312 55.039062 77.066406 51.015625 C 73.222656 44.207031 76.71875 37.398438 77.773438 30.59375 L 79.195312 24.554688 L 79.019531 20.472656 L 77.597656 16.386719 L 79.375 15.5 L 79.550781 13.011719 L 100.328125 13.902344 L 98.195312 15.320312 L 101.746094 19.9375 L 103.167969 28.816406 L 102.8125 32.902344 L 101.746094 33.078125 L 102.8125 34.855469 L 103.523438 39.648438 L 104.945312 42.3125 L 106.007812 37.695312 L 106.007812 35.210938 L 110.980469 25.796875 L 107.429688 22.957031 L 108.140625 21.890625 L 109.027344 21.714844 L 107.074219 20.828125 L 107.429688 19.9375 L 108.851562 19.050781 L 107.785156 16.566406 L 106.363281 14.433594 L 103.523438 13.011719 L 100.316406 13.898438 L 79.628906 12.988281 L 75.453125 4.136719 C 65.558594 -2.960938 65.464844 3.488281 63.898438 7.914062 L 63.898438 13.1875 L 63.648438 21.726562 L 65.15625 35.789062 L 65.910156 51.863281 C 65.308594 57.21875 61.917969 62.578125 71.433594 67.933594 L 72.941406 72.203125 L 64.902344 69.441406 L 53.351562 76.976562 L 52.347656 78.480469 L 51.59375 75.46875 L 51.59375 67.433594 L 53.601562 65.675781 C 56.851562 61.757812 59.171875 57.609375 57.117188 52.363281 L 54.859375 48.347656 L 54.859375 39.808594 C 57.148438 35.25 54.3125 32.890625 52.09375 30.265625 L 53.101562 22.734375 C 53.222656 12.972656 44.25 7.308594 41.550781 16.707031 C 40.296875 19.179688 38.894531 21.625 41.550781 24.746094 C 41.46875 31.105469 39.386719 37.46875 42.300781 43.832031 L 42.300781 54.128906 L 46.320312 65.929688 C 47.550781 69.363281 49.746094 72.03125 47.828125 77.984375 L 48.582031 86.523438 L 47.074219 89.789062 L 44.8125 88.53125 L 42.554688 86.523438 L 40.542969 86.023438 L 31.425781 89.742188 Z M 31.425781 89.726562 " fill-opacity="1" fill-rule="nonzero"/></g><g clip-path="url(#8375296925)"><path fill="#d40000" d="M 164.777344 90.15625 C 166.554688 92.820312 167.164062 90.824219 167.621094 88.203125 L 174.191406 77.726562 L 171.703125 78.261719 L 171.703125 77.550781 L 174.191406 76.308594 L 177.386719 64.054688 L 179.515625 64.585938 L 179.695312 61.570312 L 180.40625 55.175781 C 182.015625 36.96875 200.28125 53.636719 194.609375 56.953125 C 193.101562 60.445312 192.746094 63.9375 186.796875 67.429688 C 184.117188 71.867188 183.941406 78.089844 177.03125 79.503906 L 175.433594 80.390625 C 176.675781 85.132812 174.496094 88.847656 169.039062 91.578125 C 167.992188 93.945312 167.15625 96.316406 169.394531 98.683594 L 167.976562 99.390625 L 169.394531 100.8125 L 169.574219 104.542969 L 168.328125 106.316406 L 168.683594 107.738281 L 167.796875 109.335938 L 168.507812 111.46875 L 168.152344 113.242188 L 161.9375 116.796875 L 163.359375 114.308594 L 157.675781 117.328125 L 160.695312 116.796875 L 158.207031 119.457031 C 160.773438 124.195312 161.519531 128.707031 158.742188 132.777344 L 159.097656 136.328125 L 160.160156 135.441406 C 163.585938 142.695312 158.828125 152.183594 155.191406 161.367188 L 150.21875 161.542969 L 146.84375 164.207031 L 141.339844 164.207031 L 134.414062 159.769531 L 128.910156 157.816406 L 124.824219 159.589844 L 121.804688 159.058594 L 121.804688 160.300781 L 117.011719 159.945312 L 120.382812 159.058594 L 119.496094 157.816406 L 116.65625 158.527344 L 113.636719 157.636719 L 112.75 154.796875 L 113.460938 153.554688 L 112.925781 152.3125 L 108.488281 152.3125 L 110.441406 153.199219 L 110.441406 154.265625 L 111.683594 154.265625 L 110.617188 155.152344 L 112.570312 155.152344 L 113.636719 157.816406 L 111.859375 157.816406 L 111.503906 160.65625 L 109.195312 160.65625 L 109.019531 157.992188 L 104.933594 155.507812 L 104.402344 157.816406 L 98.898438 154.085938 L 100.320312 153.019531 L 98.542969 151.601562 L 99.609375 150.179688 L 101.382812 150.179688 L 101.5625 151.777344 L 111.507812 142.722656 L 112.039062 140.769531 L 112.039062 137.214844 L 111.683594 134.554688 L 115.769531 130.644531 L 118.078125 125.851562 L 118.078125 123.011719 L 111.683594 122.832031 L 111.683594 121.945312 L 109.90625 121.945312 L 110.085938 123.011719 L 108.308594 122.832031 L 104.402344 117.859375 L 103.515625 116.441406 L 98.1875 108.625 L 97.476562 106.316406 L 101.207031 102.054688 L 101.207031 97.4375 L 102.449219 97.4375 L 103.335938 96.195312 L 107.777344 97.085938 L 107.421875 98.683594 L 112.394531 102.589844 L 115.414062 105.429688 L 117.542969 107.5625 L 117.898438 110.578125 L 120.207031 113.066406 L 118.609375 115.375 L 118.609375 117.503906 L 120.03125 120.167969 L 118.609375 120.703125 L 118.433594 122.65625 L 120.5625 126.738281 L 122.515625 132.421875 L 124.292969 136.863281 L 125.535156 140.234375 C 125.640625 135.808594 128.132812 133.292969 131.574219 131.535156 C 139.773438 131.707031 138.363281 125.761719 139.742188 121.589844 L 144.003906 117.148438 L 147.375 113.421875 L 147.554688 111.46875 L 144.003906 105.074219 L 139.917969 103.476562 L 136.367188 105.609375 L 132.992188 105.074219 L 128.730469 102.765625 L 127.132812 99.925781 L 124.824219 99.925781 L 122.339844 102.234375 L 119.496094 103.300781 L 117.367188 101.347656 L 115.945312 101.703125 L 115.414062 105.785156 L 113.636719 105.074219 L 113.636719 101.523438 L 112.039062 100.101562 L 107.777344 97.085938 L 103.335938 96.375 C 97.621094 92.585938 98.832031 88.796875 99.609375 85.007812 L 102.449219 76.484375 L 102.449219 73.644531 L 99.964844 72.578125 L 99.429688 70.449219 L 99.964844 69.203125 L 99.074219 66.71875 L 97.65625 64.234375 L 104.582031 43.277344 L 104.757812 47.71875 L 106.355469 48.074219 L 108.132812 56.242188 L 109.199219 62.988281 L 109.199219 68.316406 L 107.421875 71.691406 L 104.757812 72.933594 L 102.628906 73.820312 L 102.449219 76.484375 L 103.871094 75.773438 L 108.308594 73.820312 L 109.550781 74.886719 L 111.328125 74.53125 L 112.394531 71.867188 L 114.703125 71.867188 L 120.207031 72.222656 L 123.226562 72.222656 L 124.292969 67.960938 L 121.628906 63.523438 C 118.300781 59.496094 118.511719 55.472656 119.140625 51.445312 C 122.984375 44.640625 119.488281 37.832031 118.429688 31.027344 L 117.011719 24.988281 L 117.1875 20.902344 L 118.609375 16.820312 L 116.832031 15.929688 L 116.65625 13.445312 L 95.878906 14.332031 L 98.011719 15.753906 L 94.457031 20.371094 L 93.039062 29.25 L 93.394531 33.335938 L 94.457031 33.511719 L 93.394531 35.289062 L 92.683594 40.082031 L 91.261719 42.746094 L 90.195312 38.128906 L 90.195312 35.644531 L 85.222656 26.230469 L 88.777344 23.390625 L 88.066406 22.324219 L 87.179688 22.148438 L 89.132812 21.257812 L 88.777344 20.371094 L 87.355469 19.484375 L 88.421875 16.996094 L 89.839844 14.867188 L 92.683594 13.445312 L 95.890625 14.328125 L 116.578125 13.417969 L 120.753906 4.566406 C 130.644531 -2.542969 130.746094 3.910156 132.304688 8.335938 L 132.304688 13.609375 L 132.558594 22.148438 L 131.050781 36.210938 L 130.296875 52.28125 C 130.898438 57.640625 134.289062 62.996094 124.773438 68.355469 L 123.265625 72.625 L 131.300781 69.859375 L 142.855469 77.394531 L 143.859375 78.902344 L 144.613281 75.886719 L 144.613281 67.851562 L 142.601562 66.09375 C 139.351562 62.175781 137.035156 58.027344 139.085938 52.785156 L 141.347656 48.765625 L 141.347656 40.226562 C 139.058594 35.671875 141.890625 33.308594 144.109375 30.683594 L 143.105469 23.148438 C 142.980469 13.386719 151.957031 7.722656 154.65625 17.121094 C 155.910156 19.59375 157.3125 22.039062 154.65625 25.160156 C 154.734375 31.519531 156.820312 37.882812 153.902344 44.246094 L 153.902344 54.542969 L 149.886719 66.34375 C 148.652344 69.78125 146.460938 72.445312 148.378906 78.398438 L 147.625 86.9375 L 149.132812 90.203125 L 151.390625 88.949219 L 153.652344 86.9375 L 155.660156 86.4375 L 164.777344 90.160156 Z M 164.777344 90.15625 " fill-opacity="1" fill-rule="nonzero"/></g><path fill="#894c91" d="M 98.285156 108.199219 L 88.164062 122.492188 L 86.476562 122.492188 L 84.613281 121.160156 L 84.257812 122.316406 L 78.21875 122.40625 L 78.042969 125.601562 L 80.527344 130.660156 L 84.347656 134.214844 L 84.347656 136.253906 L 84.078125 136.964844 L 84.257812 140.695312 L 84.347656 142.292969 L 86.121094 143.535156 L 94.554688 151.351562 L 94.734375 150.019531 L 96.332031 150.019531 L 97.574219 151.4375 L 96.242188 152.59375 L 99.085938 154.191406 L 100.683594 152.859375 L 98.816406 151.527344 L 99.707031 150.550781 L 101.039062 150.460938 L 101.75 151.703125 L 111.515625 143.359375 L 112.492188 140.695312 L 112.046875 134.65625 L 115.421875 131.550781 L 118.175781 126.222656 L 118.261719 122.9375 L 111.960938 122.757812 L 111.691406 121.695312 L 110.09375 121.78125 L 109.828125 122.9375 L 108.320312 122.757812 Z M 98.285156 108.199219 " fill-opacity="1" fill-rule="nonzero"/><path fill="#d40000" d="M 68.542969 104.820312 L 65.789062 104.820312 L 65.433594 105.621094 L 64.722656 106.417969 L 66.945312 107.484375 L 67.65625 108.726562 L 71.027344 108.640625 L 71.027344 107.574219 L 69.519531 106.417969 L 68.898438 105.796875 Z M 68.542969 104.820312 " fill-opacity="1" fill-rule="nonzero"/><path fill="#7ed957" d="M 127.542969 104.203125 L 130.296875 104.203125 L 130.652344 105.003906 L 131.363281 105.800781 L 129.140625 106.867188 L 128.433594 108.109375 L 125.058594 108.023438 L 125.058594 106.957031 L 126.566406 105.800781 L 127.1875 105.179688 Z M 127.542969 104.203125 " fill-opacity="1" fill-rule="nonzero"/><path fill="#894c91" d="M 98.179688 62.855469 C 95.476562 56.265625 93.414062 49.34375 91.277344 42.75 L 92.5625 40.058594 L 93.347656 35.214844 L 94.414062 33.582031 L 93.914062 33.269531 C 90.855469 35.308594 92.128906 18.695312 97.742188 15.816406 L 98.371094 15.375 L 101.886719 20.085938 C 102.738281 24.5625 105.382812 29.722656 102.84375 33.113281 L 101.886719 33.269531 L 102.828125 34.964844 L 103.800781 40.058594 L 104.898438 42.183594 C 102.980469 48.964844 100.832031 56.078125 98.183594 62.859375 Z M 98.179688 62.855469 " fill-opacity="1" fill-rule="nonzero"/><path fill="#894c91" d="M 146.773438 87.9375 L 143.949219 89.445312 L 141.753906 90.890625 L 140.308594 91.957031 L 139.492188 93.085938 L 139.242188 97.671875 L 137.230469 98.109375 L 135.035156 98.171875 L 133.96875 97.671875 L 132.460938 96.351562 L 132.585938 97.796875 L 132.835938 99.175781 L 135.160156 99.929688 L 135.347656 100.871094 C 135.347656 100.871094 133.90625 101.75 133.652344 101.75 C 133.402344 101.75 131.015625 101.75 130.703125 101.6875 C 130.390625 101.625 127.6875 101.1875 127.6875 101.1875 C 127.6875 101.1875 127.1875 98.363281 127.4375 98.171875 C 127.6875 97.984375 128.882812 95.976562 128.882812 95.976562 L 130.324219 95.222656 L 129.636719 92.207031 L 130.828125 90.449219 L 131.832031 89.632812 L 132.710938 89.699219 L 132.773438 88.628906 C 132.773438 88.628906 133.027344 86.996094 133.339844 86.808594 C 133.652344 86.621094 135.976562 84.988281 136.226562 84.800781 C 136.480469 84.613281 138.675781 83.796875 139.117188 83.542969 C 139.554688 83.292969 140.9375 82.601562 141.625 82.664062 C 142.316406 82.726562 145.207031 83.859375 145.207031 83.859375 L 146.835938 86.246094 Z M 146.773438 87.9375 " fill-opacity="1" fill-rule="nonzero"/><path fill="#7ed957" d="M 148.28125 87.9375 L 147.027344 87.9375 L 140.875 91.390625 L 139.554688 93.023438 L 139.179688 97.671875 L 136.980469 98.109375 L 134.847656 98.109375 L 133.277344 97.105469 L 132.585938 96.539062 L 132.777344 99.175781 L 135.351562 99.992188 L 135.285156 100.808594 L 133.90625 101.6875 L 130.453125 101.75 L 127.691406 100.933594 L 129.386719 103.574219 C 129.386719 103.574219 131.019531 104.765625 131.394531 104.890625 C 131.769531 105.015625 133.65625 105.332031 133.65625 105.332031 L 134.535156 105.832031 L 135.539062 106.210938 L 138.113281 104.386719 L 139.808594 104.011719 L 141.691406 102.066406 L 143.699219 99.679688 C 143.699219 99.679688 143.886719 97.796875 144.265625 97.480469 C 144.640625 97.167969 145.644531 96.539062 145.644531 96.539062 L 146.273438 94.34375 L 147.59375 92.019531 L 148.15625 91.519531 Z M 148.28125 87.9375 " fill-opacity="1" fill-rule="nonzero"/><path fill="#894c91" d="M 49.113281 87.671875 L 51.9375 89.179688 L 54.136719 90.621094 L 55.582031 91.691406 L 56.398438 92.820312 L 56.648438 97.402344 L 58.65625 97.84375 L 60.855469 97.90625 L 61.921875 97.402344 L 63.429688 96.085938 L 63.300781 97.527344 L 63.050781 98.910156 L 60.730469 99.664062 L 60.539062 100.605469 C 60.539062 100.605469 61.984375 101.484375 62.234375 101.484375 C 62.488281 101.484375 64.871094 101.484375 65.1875 101.421875 C 65.5 101.359375 68.199219 100.917969 68.199219 100.917969 C 68.199219 100.917969 68.703125 98.09375 68.449219 97.90625 C 68.199219 97.714844 67.007812 95.707031 67.007812 95.707031 L 65.5625 94.953125 L 66.253906 91.941406 L 65.058594 90.183594 L 64.054688 89.367188 L 63.175781 89.429688 L 63.113281 88.363281 C 63.113281 88.363281 62.863281 86.730469 62.550781 86.542969 C 62.234375 86.351562 59.914062 84.71875 59.660156 84.53125 C 59.410156 84.34375 57.210938 83.527344 56.773438 83.277344 C 56.332031 83.027344 54.953125 82.335938 54.261719 82.398438 C 53.570312 82.460938 50.683594 83.589844 50.683594 83.589844 L 49.050781 85.976562 Z M 49.113281 87.671875 " fill-opacity="1" fill-rule="nonzero"/><path fill="#d40000" d="M 47.605469 87.671875 L 48.863281 87.671875 L 55.015625 91.125 L 56.332031 92.757812 L 56.710938 97.402344 L 58.90625 97.84375 L 61.042969 97.84375 L 62.613281 96.835938 L 63.300781 96.273438 L 63.113281 98.910156 L 60.539062 99.726562 L 60.601562 100.542969 L 61.984375 101.421875 L 65.4375 101.484375 L 68.199219 100.667969 L 66.503906 103.304688 C 66.503906 103.304688 64.871094 104.496094 64.496094 104.621094 C 64.117188 104.75 62.234375 105.0625 62.234375 105.0625 L 61.355469 105.566406 L 60.351562 105.941406 L 57.777344 104.121094 L 56.082031 103.742188 L 54.199219 101.796875 L 52.191406 99.410156 C 52.191406 99.410156 52 97.527344 51.625 97.214844 C 51.25 96.902344 50.242188 96.273438 50.242188 96.273438 L 49.617188 94.074219 L 48.296875 91.753906 L 47.730469 91.25 Z M 47.605469 87.671875 " fill-opacity="1" fill-rule="nonzero"/></g></g></g></g><g clip-path="url(#0122bdd960)"><g mask="url(#5fd6599f50)"><g transform="matrix(1, 0, 0, 1, 47, 3)"><g clip-path="url(#e673ef0353)"><g clip-path="url(#8a9ce02b0f)"><path fill="#f0be15" d="M 31.554688 89.726562 C 29.78125 92.390625 29.167969 90.394531 28.714844 87.773438 L 22.144531 77.296875 L 24.632812 77.832031 L 24.632812 77.121094 L 22.144531 75.878906 L 18.949219 63.625 L 16.816406 64.15625 L 16.640625 61.136719 L 15.929688 54.746094 C 14.316406 36.535156 -3.945312 53.203125 1.722656 56.519531 C 3.234375 60.011719 3.589844 63.503906 9.535156 66.996094 C 12.214844 71.433594 12.394531 77.65625 19.304688 79.070312 L 20.902344 79.960938 C 19.660156 84.699219 21.839844 88.414062 27.292969 91.148438 C 28.34375 93.515625 29.179688 95.882812 26.9375 98.25 L 28.359375 98.960938 L 26.9375 100.378906 L 26.761719 104.109375 L 28.003906 105.886719 L 27.648438 107.304688 L 28.539062 108.90625 L 27.828125 111.035156 L 28.183594 112.8125 L 34.398438 116.363281 L 32.976562 113.875 L 38.660156 116.894531 L 35.640625 116.363281 L 38.125 119.027344 C 35.5625 123.765625 34.8125 128.273438 37.59375 132.34375 L 37.238281 135.894531 L 36.171875 135.007812 C 32.75 142.265625 37.503906 151.75 41.144531 160.933594 L 46.117188 161.113281 L 49.492188 163.777344 L 54.996094 163.777344 L 61.921875 159.335938 L 67.425781 157.382812 L 71.511719 159.160156 L 74.53125 158.625 L 74.53125 159.871094 L 79.324219 159.515625 L 75.949219 158.625 L 76.839844 157.382812 L 79.679688 158.09375 L 82.699219 157.207031 L 83.585938 154.363281 L 82.875 153.121094 L 83.410156 151.878906 L 87.847656 151.878906 L 85.894531 152.765625 L 85.894531 153.832031 L 84.652344 153.832031 L 85.71875 154.71875 L 83.761719 154.71875 L 82.699219 157.382812 L 84.472656 157.382812 L 84.828125 160.226562 L 87.136719 160.226562 L 87.316406 157.5625 L 91.398438 155.074219 L 91.933594 157.382812 L 97.4375 153.652344 L 96.015625 152.589844 L 97.792969 151.167969 L 96.726562 149.746094 L 94.949219 149.746094 L 94.773438 151.347656 L 84.828125 142.289062 L 84.296875 140.335938 L 84.296875 136.785156 L 84.652344 134.121094 L 80.566406 130.214844 L 78.257812 125.417969 L 78.808594 122.578125 L 84.652344 122.402344 L 84.652344 121.511719 L 85.378906 122.558594 L 86.25 122.578125 L 88.742188 122.953125 L 91.933594 117.429688 L 92.820312 116.007812 L 98.367188 109.074219 L 98.855469 105.886719 L 95.128906 101.625 L 95.128906 97.007812 L 93.886719 97.007812 L 92.996094 95.765625 L 88.558594 96.652344 L 88.914062 98.25 L 83.941406 102.15625 L 80.921875 104.996094 L 78.792969 107.128906 L 78.4375 110.148438 L 76.128906 112.632812 L 77.726562 114.941406 L 77.726562 117.074219 L 76.304688 119.738281 L 77.726562 120.269531 L 77.902344 122.222656 L 75.773438 126.308594 L 73.820312 131.988281 L 72.042969 136.429688 L 70.800781 139.804688 C 70.695312 135.378906 68.203125 132.859375 64.761719 131.101562 C 56.5625 131.273438 57.96875 125.328125 56.59375 121.15625 L 52.332031 116.71875 L 48.957031 112.988281 L 48.78125 111.035156 L 52.332031 104.644531 L 56.417969 103.042969 L 59.96875 105.175781 L 63.34375 104.644531 L 67.605469 102.335938 L 69.203125 99.492188 L 71.511719 99.492188 L 73.996094 101.800781 L 76.835938 102.867188 L 78.96875 100.914062 L 80.390625 101.269531 L 80.921875 105.351562 L 82.699219 104.644531 L 82.699219 101.089844 L 84.296875 99.671875 L 88.558594 96.652344 L 92.996094 95.941406 C 98.710938 92.152344 97.503906 88.363281 96.726562 84.578125 L 93.886719 76.054688 L 93.886719 73.210938 L 96.371094 72.144531 L 96.902344 70.015625 L 96.371094 68.773438 L 97.257812 66.285156 L 98.679688 63.800781 L 91.753906 42.847656 L 91.578125 47.285156 L 89.980469 47.640625 L 88.203125 55.808594 L 87.136719 62.558594 L 87.136719 67.882812 L 88.914062 71.257812 L 91.578125 72.5 L 93.707031 73.390625 L 93.886719 76.050781 L 92.464844 75.34375 L 88.027344 73.390625 L 86.78125 74.453125 L 85.007812 74.097656 L 83.941406 71.4375 L 81.632812 71.4375 L 76.128906 71.789062 L 73.109375 71.789062 L 72.042969 67.527344 L 74.707031 63.089844 C 78.035156 59.066406 77.824219 55.039062 77.195312 51.015625 C 73.351562 44.207031 76.847656 37.398438 77.902344 30.59375 L 79.324219 24.554688 L 79.148438 20.472656 L 77.726562 16.386719 L 79.5 15.5 L 79.679688 13.011719 L 100.457031 13.902344 L 98.324219 15.320312 L 101.875 19.9375 L 103.296875 28.816406 L 102.941406 32.902344 L 101.875 33.078125 L 102.941406 34.855469 L 103.652344 39.648438 L 105.074219 42.3125 L 106.136719 37.695312 L 106.136719 35.210938 L 111.109375 25.796875 L 107.558594 22.957031 L 108.269531 21.890625 L 109.15625 21.714844 L 107.203125 20.828125 L 107.558594 19.9375 L 108.980469 19.050781 L 107.914062 16.566406 L 106.492188 14.433594 L 103.652344 13.011719 L 100.441406 13.898438 L 79.757812 12.988281 L 75.582031 4.136719 C 65.6875 -2.960938 65.59375 3.488281 64.027344 7.914062 L 64.027344 13.1875 L 63.777344 21.726562 L 65.285156 35.789062 L 66.035156 51.863281 C 65.4375 57.21875 62.046875 62.578125 71.5625 67.933594 L 73.070312 72.203125 L 65.03125 69.441406 L 53.480469 76.976562 L 52.476562 78.480469 L 51.722656 75.46875 L 51.722656 67.433594 L 53.730469 65.675781 C 56.980469 61.757812 59.300781 57.609375 57.246094 52.363281 L 54.988281 48.347656 L 54.988281 39.808594 C 57.277344 35.25 54.441406 32.890625 52.222656 30.265625 L 53.230469 22.734375 C 53.351562 12.972656 44.378906 7.308594 41.679688 16.707031 C 40.425781 19.179688 39.023438 21.625 41.679688 24.746094 C 41.597656 31.105469 39.515625 37.46875 42.429688 43.832031 L 42.429688 54.128906 L 46.449219 65.929688 C 47.679688 69.363281 49.875 72.03125 47.957031 77.984375 L 48.710938 86.523438 L 47.203125 89.789062 L 44.941406 88.53125 L 42.683594 86.523438 L 40.671875 86.023438 L 31.554688 89.742188 Z M 31.554688 89.726562 " fill-opacity="1" fill-rule="nonzero"/></g><g clip-path="url(#b753629ecd)"><path fill="#7ed957" d="M 164.90625 90.15625 C 166.683594 92.820312 167.292969 90.824219 167.75 88.203125 L 174.320312 77.726562 L 171.832031 78.261719 L 171.832031 77.550781 L 174.320312 76.308594 L 177.515625 64.054688 L 179.644531 64.585938 L 179.824219 61.570312 L 180.535156 55.175781 C 182.144531 36.96875 200.410156 53.636719 194.738281 56.953125 C 193.230469 60.445312 192.875 63.9375 186.925781 67.429688 C 184.246094 71.867188 184.070312 78.089844 177.160156 79.503906 L 175.5625 80.390625 C 176.804688 85.132812 174.625 88.847656 169.167969 91.578125 C 168.121094 93.945312 167.285156 96.316406 169.523438 98.683594 L 168.105469 99.390625 L 169.523438 100.8125 L 169.703125 104.542969 L 168.457031 106.316406 L 168.8125 107.738281 L 167.925781 109.335938 L 168.636719 111.46875 L 168.28125 113.242188 L 162.066406 116.796875 L 163.488281 114.308594 L 157.804688 117.328125 L 160.824219 116.796875 L 158.335938 119.457031 C 160.902344 124.195312 161.648438 128.707031 158.871094 132.777344 L 159.226562 136.328125 L 160.289062 135.441406 C 163.714844 142.695312 158.957031 152.183594 155.316406 161.367188 L 150.347656 161.542969 L 146.972656 164.207031 L 141.46875 164.207031 L 134.542969 159.769531 L 129.035156 157.816406 L 124.953125 159.589844 L 121.933594 159.058594 L 121.933594 160.300781 L 117.140625 159.945312 L 120.511719 159.058594 L 119.625 157.816406 L 116.785156 158.527344 L 113.765625 157.636719 L 112.878906 154.796875 L 113.585938 153.554688 L 113.054688 152.3125 L 108.617188 152.3125 L 110.570312 153.199219 L 110.570312 154.265625 L 111.8125 154.265625 L 110.746094 155.152344 L 112.699219 155.152344 L 113.765625 157.816406 L 111.988281 157.816406 L 111.632812 160.65625 L 109.324219 160.65625 L 109.148438 157.992188 L 105.0625 155.507812 L 104.53125 157.816406 L 99.027344 154.085938 L 100.445312 153.019531 L 98.671875 151.601562 L 99.738281 150.179688 L 101.511719 150.179688 L 101.691406 151.777344 L 111.636719 142.722656 L 112.167969 140.769531 L 112.167969 137.214844 L 111.8125 134.554688 L 115.898438 130.644531 L 118.207031 125.851562 L 118.207031 123.011719 L 111.8125 122.832031 L 111.8125 121.945312 L 110.035156 121.945312 L 110.214844 123.011719 L 108.4375 122.832031 L 104.53125 117.859375 L 103.644531 116.441406 L 98.316406 108.625 L 97.605469 106.316406 L 101.335938 102.054688 L 101.335938 97.4375 L 102.578125 97.4375 L 103.464844 96.195312 L 107.90625 97.085938 L 107.550781 98.683594 L 112.523438 102.589844 L 115.542969 105.429688 L 117.671875 107.5625 L 118.027344 110.578125 L 120.335938 113.066406 L 118.738281 115.375 L 118.738281 117.503906 L 120.160156 120.167969 L 118.738281 120.703125 L 118.558594 122.65625 L 120.691406 126.738281 L 122.644531 132.421875 L 124.421875 136.863281 L 125.664062 140.234375 C 125.769531 135.808594 128.261719 133.292969 131.703125 131.535156 C 139.902344 131.707031 138.492188 125.761719 139.871094 121.589844 L 144.132812 117.148438 L 147.503906 113.421875 L 147.683594 111.46875 L 144.132812 105.074219 L 140.046875 103.476562 L 136.496094 105.609375 L 133.121094 105.074219 L 128.859375 102.765625 L 127.261719 99.925781 L 124.953125 99.925781 L 122.46875 102.234375 L 119.625 103.300781 L 117.496094 101.347656 L 116.074219 101.703125 L 115.542969 105.785156 L 113.765625 105.074219 L 113.765625 101.523438 L 112.167969 100.101562 L 107.90625 97.085938 L 103.464844 96.375 C 97.75 92.585938 98.960938 88.796875 99.738281 85.007812 L 102.578125 76.484375 L 102.578125 73.644531 L 100.09375 72.578125 L 99.558594 70.449219 L 100.09375 69.203125 L 99.203125 66.71875 L 97.785156 64.234375 L 104.710938 43.277344 L 104.886719 47.71875 L 106.484375 48.074219 L 108.261719 56.242188 L 109.328125 62.988281 L 109.328125 68.316406 L 107.550781 71.691406 L 104.886719 72.933594 L 102.753906 73.820312 L 102.578125 76.484375 L 104 75.773438 L 108.4375 73.820312 L 109.679688 74.886719 L 111.457031 74.53125 L 112.523438 71.867188 L 114.832031 71.867188 L 120.335938 72.222656 L 123.355469 72.222656 L 124.421875 67.960938 L 121.757812 63.523438 C 118.429688 59.496094 118.640625 55.472656 119.269531 51.445312 C 123.113281 44.640625 119.617188 37.832031 118.558594 31.027344 L 117.140625 24.988281 L 117.316406 20.902344 L 118.738281 16.820312 L 116.960938 15.929688 L 116.785156 13.445312 L 96.007812 14.332031 L 98.140625 15.753906 L 94.585938 20.371094 L 93.167969 29.25 L 93.523438 33.335938 L 94.585938 33.511719 L 93.523438 35.289062 L 92.8125 40.082031 L 91.390625 42.746094 L 90.324219 38.128906 L 90.324219 35.644531 L 85.351562 26.230469 L 88.90625 23.390625 L 88.195312 22.324219 L 87.304688 22.148438 L 89.261719 21.257812 L 88.90625 20.371094 L 87.484375 19.484375 L 88.550781 16.996094 L 89.96875 14.867188 L 92.8125 13.445312 L 96.019531 14.328125 L 116.707031 13.417969 L 120.882812 4.566406 C 130.773438 -2.542969 130.871094 3.910156 132.433594 8.335938 L 132.433594 13.609375 L 132.6875 22.148438 L 131.179688 36.210938 L 130.425781 52.28125 C 131.027344 57.640625 134.417969 62.996094 124.902344 68.355469 L 123.394531 72.625 L 131.429688 69.859375 L 142.984375 77.394531 L 143.988281 78.902344 L 144.742188 75.886719 L 144.742188 67.851562 L 142.730469 66.09375 C 139.480469 62.175781 137.164062 58.027344 139.214844 52.785156 L 141.476562 48.765625 L 141.476562 40.226562 C 139.1875 35.671875 142.019531 33.308594 144.238281 30.683594 L 143.234375 23.148438 C 143.109375 13.386719 152.085938 7.722656 154.785156 17.121094 C 156.035156 19.59375 157.441406 22.039062 154.785156 25.160156 C 154.863281 31.519531 156.949219 37.882812 154.03125 44.246094 L 154.03125 54.542969 L 150.015625 66.34375 C 148.78125 69.78125 146.589844 72.445312 148.507812 78.398438 L 147.753906 86.9375 L 149.261719 90.203125 L 151.519531 88.949219 L 153.78125 86.9375 L 155.789062 86.4375 L 164.90625 90.160156 Z M 164.90625 90.15625 " fill-opacity="1" fill-rule="nonzero"/></g><path fill="#b8eaf6" d="M 98.414062 108.199219 L 88.292969 122.492188 L 86.605469 122.492188 L 84.742188 121.160156 L 84.386719 122.316406 L 78.347656 122.40625 L 78.171875 125.601562 L 80.65625 130.660156 L 84.476562 134.214844 L 84.476562 136.253906 L 84.207031 136.964844 L 84.386719 140.695312 L 84.476562 142.292969 L 86.25 143.535156 L 94.683594 151.351562 L 94.863281 150.019531 L 96.460938 150.019531 L 97.703125 151.4375 L 96.371094 152.59375 L 99.214844 154.191406 L 100.8125 152.859375 L 98.945312 151.527344 L 99.835938 150.550781 L 101.167969 150.460938 L 101.878906 151.703125 L 111.644531 143.359375 L 112.621094 140.695312 L 112.175781 134.65625 L 115.550781 131.550781 L 118.304688 126.222656 L 118.390625 122.9375 L 112.089844 122.757812 L 111.820312 121.695312 L 110.222656 121.78125 L 109.957031 122.9375 L 108.449219 122.757812 Z M 98.414062 108.199219 " fill-opacity="1" fill-rule="nonzero"/><path fill="#7ed957" d="M 68.671875 104.820312 L 65.917969 104.820312 L 65.5625 105.621094 L 64.851562 106.417969 L 67.074219 107.484375 L 67.785156 108.726562 L 71.15625 108.640625 L 71.15625 107.574219 L 69.648438 106.417969 L 69.027344 105.796875 Z M 68.671875 104.820312 " fill-opacity="1" fill-rule="nonzero"/><path fill="#f0be15" d="M 127.671875 104.203125 L 130.425781 104.203125 L 130.78125 105.003906 L 131.492188 105.800781 L 129.269531 106.867188 L 128.5625 108.109375 L 125.1875 108.023438 L 125.1875 106.957031 L 126.695312 105.800781 L 127.316406 105.179688 Z M 127.671875 104.203125 " fill-opacity="1" fill-rule="nonzero"/><path fill="#b8eaf6" d="M 98.308594 62.855469 C 95.605469 56.265625 93.542969 49.34375 91.40625 42.75 L 92.691406 40.058594 L 93.476562 35.214844 L 94.542969 33.582031 L 94.042969 33.269531 C 90.984375 35.308594 92.257812 18.695312 97.871094 15.816406 L 98.5 15.375 L 102.015625 20.085938 C 102.867188 24.5625 105.511719 29.722656 102.972656 33.113281 L 102.015625 33.269531 L 102.957031 34.964844 L 103.929688 40.058594 L 105.027344 42.183594 C 103.109375 48.964844 100.960938 56.078125 98.308594 62.859375 Z M 98.308594 62.855469 " fill-opacity="1" fill-rule="nonzero"/><path fill="#b8eaf6" d="M 146.902344 87.9375 L 144.078125 89.445312 L 141.882812 90.890625 L 140.4375 91.957031 L 139.621094 93.085938 L 139.371094 97.671875 L 137.359375 98.109375 L 135.164062 98.171875 L 134.097656 97.671875 L 132.589844 96.351562 L 132.714844 97.796875 L 132.964844 99.175781 L 135.289062 99.929688 L 135.476562 100.871094 C 135.476562 100.871094 134.035156 101.75 133.78125 101.75 C 133.53125 101.75 131.144531 101.75 130.832031 101.6875 C 130.515625 101.625 127.816406 101.1875 127.816406 101.1875 C 127.816406 101.1875 127.316406 98.363281 127.566406 98.171875 C 127.816406 97.984375 129.011719 95.976562 129.011719 95.976562 L 130.453125 95.222656 L 129.765625 92.207031 L 130.957031 90.449219 L 131.960938 89.632812 L 132.839844 89.699219 L 132.902344 88.628906 C 132.902344 88.628906 133.15625 86.996094 133.46875 86.808594 C 133.78125 86.621094 136.105469 84.988281 136.355469 84.800781 C 136.609375 84.613281 138.804688 83.796875 139.246094 83.542969 C 139.683594 83.292969 141.066406 82.601562 141.753906 82.664062 C 142.445312 82.726562 145.335938 83.859375 145.335938 83.859375 L 146.964844 86.246094 Z M 146.902344 87.9375 " fill-opacity="1" fill-rule="nonzero"/><path fill="#f0be15" d="M 148.410156 87.9375 L 147.15625 87.9375 L 141.003906 91.390625 L 139.683594 93.023438 L 139.308594 97.671875 L 137.109375 98.109375 L 134.976562 98.109375 L 133.40625 97.105469 L 132.714844 96.539062 L 132.90625 99.175781 L 135.480469 99.992188 L 135.414062 100.808594 L 134.035156 101.6875 L 130.582031 101.75 L 127.820312 100.933594 L 129.515625 103.574219 C 129.515625 103.574219 131.148438 104.765625 131.523438 104.890625 C 131.898438 105.015625 133.785156 105.332031 133.785156 105.332031 L 134.664062 105.832031 L 135.667969 106.210938 L 138.242188 104.386719 L 139.9375 104.011719 L 141.820312 102.066406 L 143.828125 99.679688 C 143.828125 99.679688 144.015625 97.796875 144.394531 97.480469 C 144.769531 97.167969 145.773438 96.539062 145.773438 96.539062 L 146.402344 94.34375 L 147.722656 92.019531 L 148.285156 91.519531 Z M 148.410156 87.9375 " fill-opacity="1" fill-rule="nonzero"/><path fill="#b8eaf6" d="M 49.242188 87.671875 L 52.066406 89.179688 L 54.265625 90.621094 L 55.710938 91.691406 L 56.523438 92.820312 L 56.777344 97.402344 L 58.785156 97.84375 L 60.984375 97.90625 L 62.050781 97.402344 L 63.558594 96.085938 L 63.429688 97.527344 L 63.179688 98.910156 L 60.855469 99.664062 L 60.667969 100.605469 C 60.667969 100.605469 62.113281 101.484375 62.363281 101.484375 C 62.617188 101.484375 65 101.484375 65.316406 101.421875 C 65.628906 101.359375 68.328125 100.917969 68.328125 100.917969 C 68.328125 100.917969 68.832031 98.09375 68.578125 97.90625 C 68.328125 97.714844 67.136719 95.707031 67.136719 95.707031 L 65.691406 94.953125 L 66.382812 91.941406 L 65.1875 90.183594 L 64.183594 89.367188 L 63.304688 89.429688 L 63.242188 88.363281 C 63.242188 88.363281 62.992188 86.730469 62.679688 86.542969 C 62.363281 86.351562 60.042969 84.71875 59.789062 84.53125 C 59.539062 84.34375 57.339844 83.527344 56.902344 83.277344 C 56.460938 83.027344 55.082031 82.335938 54.390625 82.398438 C 53.699219 82.460938 50.8125 83.589844 50.8125 83.589844 L 49.179688 85.976562 Z M 49.242188 87.671875 " fill-opacity="1" fill-rule="nonzero"/><path fill="#7ed957" d="M 47.734375 87.671875 L 48.992188 87.671875 L 55.144531 91.125 L 56.460938 92.757812 L 56.839844 97.402344 L 59.035156 97.84375 L 61.171875 97.84375 L 62.742188 96.835938 L 63.429688 96.273438 L 63.242188 98.910156 L 60.667969 99.726562 L 60.730469 100.542969 L 62.113281 101.421875 L 65.566406 101.484375 L 68.328125 100.667969 L 66.632812 103.304688 C 66.632812 103.304688 65 104.496094 64.625 104.621094 C 64.246094 104.75 62.363281 105.0625 62.363281 105.0625 L 61.484375 105.566406 L 60.480469 105.941406 L 57.90625 104.121094 L 56.210938 103.742188 L 54.328125 101.796875 L 52.320312 99.410156 C 52.320312 99.410156 52.128906 97.527344 51.753906 97.214844 C 51.378906 96.902344 50.371094 96.273438 50.371094 96.273438 L 49.746094 94.074219 L 48.425781 91.753906 L 47.859375 91.25 Z M 47.734375 87.671875 " fill-opacity="1" fill-rule="nonzero"/></g></g></g></g><g fill="#ffffff" fill-opacity="1"><g transform="translate(10.211621, 137.270106)"><g><path d="M 3.65625 -1.171875 L 1.796875 -0.578125 C 1.535156 -0.492188 1.363281 -0.582031 1.28125 -0.84375 L -3.09375 -14.40625 C -3.175781 -14.664062 -3.085938 -14.835938 -2.828125 -14.921875 L -0.96875 -15.515625 C -0.707031 -15.597656 -0.535156 -15.507812 -0.453125 -15.25 L 1.78125 -8.296875 L 7.984375 -10.296875 L 5.75 -17.25 C 5.664062 -17.507812 5.753906 -17.679688 6.015625 -17.765625 L 7.859375 -18.375 C 8.109375 -18.445312 8.273438 -18.351562 8.359375 -18.09375 L 12.734375 -4.53125 C 12.816406 -4.269531 12.734375 -4.101562 12.484375 -4.03125 L 10.640625 -3.421875 C 10.378906 -3.335938 10.207031 -3.425781 10.125 -3.6875 L 8.75 -7.96875 L 2.546875 -5.96875 L 3.921875 -1.6875 C 4.003906 -1.425781 3.914062 -1.253906 3.65625 -1.171875 Z M 3.65625 -1.171875 "/></g></g></g><g fill="#ffffff" fill-opacity="1"><g transform="translate(28.08528, 131.597738)"><g><path d="M 9.625 -2.78125 L 1.8125 -0.53125 C 1.550781 -0.445312 1.382812 -0.535156 1.3125 -0.796875 L -2.640625 -14.484375 C -2.710938 -14.742188 -2.617188 -14.914062 -2.359375 -15 L 5.453125 -17.25 C 5.703125 -17.320312 5.863281 -17.226562 5.9375 -16.96875 L 6.390625 -15.390625 C 6.460938 -15.140625 6.375 -14.976562 6.125 -14.90625 L 0.578125 -13.296875 L 2.046875 -8.1875 L 6.828125 -9.578125 C 7.085938 -9.648438 7.257812 -9.554688 7.34375 -9.296875 L 7.765625 -7.828125 C 7.835938 -7.566406 7.742188 -7.398438 7.484375 -7.328125 L 2.703125 -5.9375 L 3.40625 -3.515625 L 8.953125 -5.125 C 9.203125 -5.195312 9.363281 -5.109375 9.4375 -4.859375 L 9.890625 -3.28125 C 9.960938 -3.019531 9.875 -2.851562 9.625 -2.78125 Z M 9.625 -2.78125 "/></g></g></g><g fill="#ffffff" fill-opacity="1"><g transform="translate(42.624623, 127.463545)"><g><path d="M 8.453125 -2.203125 L 1.828125 -0.484375 C 1.566406 -0.410156 1.398438 -0.503906 1.328125 -0.765625 L -2.265625 -14.5625 C -2.328125 -14.820312 -2.226562 -14.988281 -1.96875 -15.0625 L -0.078125 -15.546875 C 0.179688 -15.617188 0.34375 -15.523438 0.40625 -15.265625 L 3.5 -3.4375 L 7.84375 -4.5625 C 8.101562 -4.632812 8.265625 -4.546875 8.328125 -4.296875 L 8.734375 -2.703125 C 8.804688 -2.441406 8.710938 -2.273438 8.453125 -2.203125 Z M 8.453125 -2.203125 "/></g></g></g><g fill="#ffffff" fill-opacity="1"><g transform="translate(55.42547, 124.147851)"><g><path d="M 3.75 -0.875 L 1.84375 -0.421875 C 1.582031 -0.359375 1.421875 -0.457031 1.359375 -0.71875 L -1.859375 -14.609375 C -1.921875 -14.867188 -1.820312 -15.03125 -1.5625 -15.09375 L 3.203125 -16.203125 C 4.203125 -16.429688 5.085938 -16.507812 5.859375 -16.4375 C 6.628906 -16.375 7.28125 -16.175781 7.8125 -15.84375 C 8.34375 -15.519531 8.773438 -15.082031 9.109375 -14.53125 C 9.453125 -13.976562 9.710938 -13.332031 9.890625 -12.59375 C 10.265625 -10.988281 10.109375 -9.644531 9.421875 -8.5625 C 8.742188 -7.488281 7.5625 -6.757812 5.875 -6.375 L 3.03125 -5.703125 L 4.046875 -1.34375 C 4.109375 -1.082031 4.007812 -0.925781 3.75 -0.875 Z M 1.28125 -13.25 L 2.484375 -8.078125 L 4.59375 -8.578125 C 4.78125 -8.617188 5.007812 -8.679688 5.28125 -8.765625 C 5.550781 -8.847656 5.820312 -8.960938 6.09375 -9.109375 C 6.375 -9.253906 6.617188 -9.453125 6.828125 -9.703125 C 7.046875 -9.953125 7.195312 -10.257812 7.28125 -10.625 C 7.375 -10.988281 7.359375 -11.429688 7.234375 -11.953125 C 7.117188 -12.453125 6.945312 -12.84375 6.71875 -13.125 C 6.5 -13.414062 6.238281 -13.625 5.9375 -13.75 C 5.644531 -13.875 5.34375 -13.9375 5.03125 -13.9375 C 4.71875 -13.945312 4.421875 -13.929688 4.140625 -13.890625 C 3.859375 -13.847656 3.609375 -13.800781 3.390625 -13.75 Z M 1.28125 -13.25 "/></g></g></g><g fill="#ffffff" fill-opacity="1"><g transform="translate(71.995344, 120.397605)"><g><path d="M 3.765625 -0.78125 L 1.84375 -0.375 C 1.582031 -0.320312 1.425781 -0.425781 1.375 -0.6875 L -1.515625 -14.65625 C -1.566406 -14.914062 -1.460938 -15.070312 -1.203125 -15.125 L 0.71875 -15.53125 C 0.976562 -15.582031 1.132812 -15.476562 1.1875 -15.21875 L 4.078125 -1.25 C 4.128906 -0.988281 4.023438 -0.832031 3.765625 -0.78125 Z M 3.765625 -0.78125 "/></g></g></g><g fill="#ffffff" fill-opacity="1"><g transform="translate(81.30797, 118.458668)"><g><path d="M 3.734375 -0.671875 L 1.875 -0.34375 C 1.613281 -0.289062 1.457031 -0.398438 1.40625 -0.671875 L -1.125 -14.75 C -1.1875 -15.101562 -1.125 -15.332031 -0.9375 -15.4375 C -0.75 -15.550781 -0.515625 -15.507812 -0.234375 -15.3125 L 9.8125 -8.046875 L 8.3125 -16.375 C 8.257812 -16.644531 8.363281 -16.804688 8.625 -16.859375 L 10.484375 -17.1875 C 10.753906 -17.238281 10.914062 -17.128906 10.96875 -16.859375 L 13.5 -2.796875 C 13.5625 -2.429688 13.492188 -2.191406 13.296875 -2.078125 C 13.109375 -1.972656 12.851562 -2.03125 12.53125 -2.25 L 2.53125 -9.71875 L 4.0625 -1.15625 C 4.113281 -0.882812 4.003906 -0.722656 3.734375 -0.671875 Z M 3.734375 -0.671875 "/></g></g></g><g fill="#ffffff" fill-opacity="1"><g transform="translate(100.012571, 115.155713)"><g><path d="M 8.78125 -0.890625 C 7.875 -0.765625 7.003906 -0.765625 6.171875 -0.890625 C 5.347656 -1.023438 4.578125 -1.269531 3.859375 -1.625 C 3.140625 -1.988281 2.5 -2.457031 1.9375 -3.03125 C 1.375 -3.613281 0.90625 -4.285156 0.53125 -5.046875 C 0.15625 -5.804688 -0.0976562 -6.648438 -0.234375 -7.578125 C -0.359375 -8.503906 -0.347656 -9.382812 -0.203125 -10.21875 C -0.0546875 -11.0625 0.203125 -11.832031 0.578125 -12.53125 C 0.953125 -13.238281 1.429688 -13.863281 2.015625 -14.40625 C 2.597656 -14.957031 3.269531 -15.410156 4.03125 -15.765625 C 4.800781 -16.128906 5.640625 -16.375 6.546875 -16.5 C 7.742188 -16.675781 8.867188 -16.625 9.921875 -16.34375 C 10.984375 -16.0625 11.921875 -15.59375 12.734375 -14.9375 C 12.953125 -14.78125 12.960938 -14.597656 12.765625 -14.390625 L 11.34375 -13.046875 C 11.1875 -12.867188 11.003906 -12.859375 10.796875 -13.015625 C 10.273438 -13.398438 9.679688 -13.6875 9.015625 -13.875 C 8.359375 -14.0625 7.65625 -14.097656 6.90625 -13.984375 C 6.175781 -13.878906 5.515625 -13.65625 4.921875 -13.3125 C 4.335938 -12.96875 3.84375 -12.53125 3.4375 -12 C 3.039062 -11.46875 2.757812 -10.859375 2.59375 -10.171875 C 2.425781 -9.492188 2.398438 -8.757812 2.515625 -7.96875 C 2.640625 -7.164062 2.875 -6.453125 3.21875 -5.828125 C 3.570312 -5.203125 4.015625 -4.6875 4.546875 -4.28125 C 5.085938 -3.875 5.6875 -3.585938 6.34375 -3.421875 C 7.007812 -3.265625 7.707031 -3.238281 8.4375 -3.34375 C 9.15625 -3.445312 9.800781 -3.664062 10.375 -4 C 10.957031 -4.34375 11.441406 -4.769531 11.828125 -5.28125 L 11.625 -6.671875 L 8.390625 -6.21875 C 8.117188 -6.175781 7.960938 -6.289062 7.921875 -6.5625 L 7.703125 -8.078125 C 7.671875 -8.335938 7.789062 -8.488281 8.0625 -8.53125 L 13.421875 -9.296875 C 13.691406 -9.335938 13.84375 -9.226562 13.875 -8.96875 L 14.484375 -4.78125 C 14.503906 -4.59375 14.460938 -4.429688 14.359375 -4.296875 C 13.796875 -3.390625 13.035156 -2.640625 12.078125 -2.046875 C 11.117188 -1.453125 10.019531 -1.066406 8.78125 -0.890625 Z M 8.78125 -0.890625 "/></g></g></g><g fill="#ffffff" fill-opacity="1"><g transform="translate(119.626627, 112.456377)"><g/></g></g><g fill="#ffffff" fill-opacity="1"><g transform="translate(129.356116, 111.31499)"><g><path d="M 3.828125 -0.34375 L 1.890625 -0.171875 C 1.617188 -0.148438 1.472656 -0.273438 1.453125 -0.546875 L 0.171875 -14.734375 C 0.140625 -15.003906 0.257812 -15.148438 0.53125 -15.171875 L 2.46875 -15.34375 C 2.738281 -15.363281 2.890625 -15.238281 2.921875 -14.96875 L 3.578125 -7.703125 L 10.0625 -8.296875 L 9.40625 -15.5625 C 9.375 -15.832031 9.492188 -15.976562 9.765625 -16 L 11.71875 -16.171875 C 11.976562 -16.203125 12.125 -16.082031 12.15625 -15.8125 L 13.4375 -1.625 C 13.457031 -1.351562 13.335938 -1.203125 13.078125 -1.171875 L 11.125 -1 C 10.851562 -0.976562 10.707031 -1.101562 10.6875 -1.375 L 10.28125 -5.859375 L 3.796875 -5.265625 L 4.203125 -0.78125 C 4.222656 -0.507812 4.097656 -0.363281 3.828125 -0.34375 Z M 3.828125 -0.34375 "/></g></g></g><g fill="#ffffff" fill-opacity="1"><g transform="translate(148.070262, 109.733339)"><g><path d="M 3.484375 0 C 3.171875 0.0195312 2.878906 -0.0351562 2.609375 -0.171875 C 2.335938 -0.304688 2.113281 -0.5 1.9375 -0.75 C 1.769531 -1 1.675781 -1.285156 1.65625 -1.609375 C 1.632812 -1.921875 1.691406 -2.210938 1.828125 -2.484375 C 1.972656 -2.753906 2.171875 -2.972656 2.421875 -3.140625 C 2.671875 -3.316406 2.953125 -3.414062 3.265625 -3.4375 C 3.578125 -3.457031 3.867188 -3.394531 4.140625 -3.25 C 4.410156 -3.113281 4.628906 -2.921875 4.796875 -2.671875 C 4.972656 -2.421875 5.070312 -2.140625 5.09375 -1.828125 C 5.113281 -1.503906 5.050781 -1.203125 4.90625 -0.921875 C 4.757812 -0.648438 4.5625 -0.429688 4.3125 -0.265625 C 4.0625 -0.109375 3.785156 -0.0195312 3.484375 0 Z M 3.484375 0 "/></g></g></g><g fill="#ffffff" fill-opacity="1"><g transform="translate(158.777106, 109.051958)"><g><path d="M 3.796875 -0.140625 L 1.90625 -0.0625 C 1.644531 -0.0507812 1.507812 -0.179688 1.5 -0.453125 L 0.984375 -14.75 C 0.972656 -15.101562 1.0625 -15.320312 1.25 -15.40625 C 1.445312 -15.5 1.675781 -15.425781 1.9375 -15.1875 L 10.859375 -6.59375 L 10.546875 -15.046875 C 10.535156 -15.316406 10.664062 -15.453125 10.9375 -15.453125 L 12.8125 -15.53125 C 13.082031 -15.539062 13.222656 -15.410156 13.234375 -15.140625 L 13.75 -0.859375 C 13.757812 -0.492188 13.660156 -0.269531 13.453125 -0.1875 C 13.242188 -0.101562 13 -0.191406 12.71875 -0.453125 L 3.875 -9.265625 L 4.1875 -0.5625 C 4.195312 -0.289062 4.066406 -0.148438 3.796875 -0.140625 Z M 3.796875 -0.140625 "/></g></g></g><g fill="#ffffff" fill-opacity="1"><g transform="translate(177.821594, 108.473293)"><g><path d="M 3.46875 0.1875 C 3.15625 0.1875 2.867188 0.113281 2.609375 -0.03125 C 2.347656 -0.175781 2.132812 -0.378906 1.96875 -0.640625 C 1.8125 -0.898438 1.734375 -1.191406 1.734375 -1.515625 C 1.734375 -1.828125 1.804688 -2.113281 1.953125 -2.375 C 2.109375 -2.632812 2.316406 -2.84375 2.578125 -3 C 2.835938 -3.164062 3.125 -3.25 3.4375 -3.25 C 3.757812 -3.25 4.050781 -3.171875 4.3125 -3.015625 C 4.570312 -2.867188 4.78125 -2.664062 4.9375 -2.40625 C 5.101562 -2.144531 5.1875 -1.859375 5.1875 -1.546875 C 5.1875 -1.222656 5.109375 -0.925781 4.953125 -0.65625 C 4.796875 -0.394531 4.585938 -0.1875 4.328125 -0.03125 C 4.066406 0.113281 3.78125 0.1875 3.46875 0.1875 Z M 3.46875 0.1875 "/></g></g></g><g fill="#ffffff" fill-opacity="1"><g transform="translate(188.552939, 108.375372)"><g><path d="M 5.90625 0.109375 L 1.890625 0.03125 C 1.617188 0.03125 1.484375 -0.101562 1.484375 -0.375 L 1.75 -14.625 C 1.75 -14.894531 1.882812 -15.03125 2.15625 -15.03125 L 6.171875 -14.953125 C 7.878906 -14.921875 9.320312 -14.597656 10.5 -13.984375 C 11.675781 -13.367188 12.5625 -12.492188 13.15625 -11.359375 C 13.75 -10.234375 14.035156 -8.878906 14.015625 -7.296875 C 13.984375 -5.722656 13.648438 -4.378906 13.015625 -3.265625 C 12.390625 -2.148438 11.476562 -1.300781 10.28125 -0.71875 C 9.082031 -0.132812 7.625 0.140625 5.90625 0.109375 Z M 4.484375 -12.546875 L 4.3125 -2.359375 L 5.9375 -2.328125 C 7.050781 -2.304688 8 -2.488281 8.78125 -2.875 C 9.570312 -3.269531 10.175781 -3.84375 10.59375 -4.59375 C 11.019531 -5.351562 11.242188 -6.273438 11.265625 -7.359375 C 11.273438 -8.453125 11.082031 -9.378906 10.6875 -10.140625 C 10.300781 -10.898438 9.71875 -11.476562 8.9375 -11.875 C 8.164062 -12.28125 7.222656 -12.492188 6.109375 -12.515625 Z M 4.484375 -12.546875 "/></g></g></g><g fill="#ffffff" fill-opacity="1"><g transform="translate(207.101478, 108.807699)"><g/></g></g><g fill="#ffffff" fill-opacity="1"><g transform="translate(216.873203, 109.203746)"><g><path d="M 3.796875 0.265625 L 1.90625 0.140625 C 1.644531 0.117188 1.523438 -0.0234375 1.546875 -0.296875 L 2.5625 -14.59375 C 2.582031 -14.851562 2.644531 -15.03125 2.75 -15.125 C 2.851562 -15.226562 2.976562 -15.257812 3.125 -15.21875 C 3.28125 -15.175781 3.425781 -15.054688 3.5625 -14.859375 L 9.25 -6.078125 L 16.125 -13.953125 C 16.269531 -14.128906 16.421875 -14.226562 16.578125 -14.25 C 16.734375 -14.269531 16.859375 -14.222656 16.953125 -14.109375 C 17.046875 -13.992188 17.082031 -13.804688 17.0625 -13.546875 L 16.046875 0.75 C 16.023438 1.019531 15.878906 1.144531 15.609375 1.125 L 13.71875 0.984375 C 13.457031 0.960938 13.335938 0.816406 13.359375 0.546875 L 13.9375 -7.4375 L 9.25 -2.171875 C 9.15625 -2.066406 9.054688 -2.015625 8.953125 -2.015625 C 8.847656 -2.023438 8.753906 -2.09375 8.671875 -2.21875 L 4.796875 -8.078125 L 4.234375 -0.109375 C 4.210938 0.160156 4.066406 0.285156 3.796875 0.265625 Z M 3.796875 0.265625 "/></g></g></g><g fill="#ffffff" fill-opacity="1"><g transform="translate(238.072787, 110.818918)"><g><path d="M 9.265625 -14.140625 L 14.171875 1.0625 C 14.210938 1.207031 14.203125 1.316406 14.140625 1.390625 C 14.078125 1.472656 13.96875 1.503906 13.8125 1.484375 L 11.671875 1.265625 C 11.441406 1.234375 11.300781 1.109375 11.25 0.890625 L 10.625 -1.296875 L 4.328125 -1.984375 L 3.265625 0.03125 C 3.160156 0.226562 2.992188 0.316406 2.765625 0.296875 L 0.625 0.0625 C 0.476562 0.0507812 0.378906 0.00390625 0.328125 -0.078125 C 0.273438 -0.171875 0.289062 -0.289062 0.375 -0.4375 L 8.375 -14.234375 C 8.519531 -14.472656 8.679688 -14.582031 8.859375 -14.5625 C 9.046875 -14.539062 9.179688 -14.398438 9.265625 -14.140625 Z M 8.3125 -9.421875 L 5.453125 -4.078125 L 9.96875 -3.59375 Z M 8.3125 -9.421875 "/></g></g></g><g fill="#ffffff" fill-opacity="1"><g transform="translate(256.210682, 112.844314)"><g><path d="M 10.625 -3.984375 L 12.5 1.265625 C 12.550781 1.421875 12.539062 1.539062 12.46875 1.625 C 12.40625 1.707031 12.300781 1.738281 12.15625 1.71875 L 9.9375 1.390625 C 9.726562 1.367188 9.585938 1.25 9.515625 1.03125 L 7.859375 -3.8125 L 7.78125 -3.828125 L 4.875 -4.234375 L 4.265625 0.1875 C 4.222656 0.457031 4.070312 0.570312 3.8125 0.53125 L 1.875 0.265625 C 1.601562 0.222656 1.488281 0.0664062 1.53125 -0.203125 L 3.515625 -14.3125 C 3.546875 -14.582031 3.695312 -14.695312 3.96875 -14.65625 L 8.8125 -13.984375 C 9.832031 -13.835938 10.6875 -13.59375 11.375 -13.25 C 12.0625 -12.90625 12.597656 -12.484375 12.984375 -11.984375 C 13.367188 -11.484375 13.617188 -10.914062 13.734375 -10.28125 C 13.859375 -9.644531 13.863281 -8.953125 13.75 -8.203125 C 13.59375 -7.078125 13.25 -6.15625 12.71875 -5.4375 C 12.195312 -4.726562 11.5 -4.242188 10.625 -3.984375 Z M 5.96875 -11.90625 L 5.21875 -6.640625 L 7.375 -6.34375 C 7.5625 -6.3125 7.796875 -6.285156 8.078125 -6.265625 C 8.359375 -6.253906 8.65625 -6.269531 8.96875 -6.3125 C 9.28125 -6.351562 9.578125 -6.445312 9.859375 -6.59375 C 10.148438 -6.75 10.398438 -6.976562 10.609375 -7.28125 C 10.828125 -7.59375 10.972656 -8.019531 11.046875 -8.5625 C 11.117188 -9.0625 11.097656 -9.488281 10.984375 -9.84375 C 10.878906 -10.195312 10.710938 -10.476562 10.484375 -10.6875 C 10.253906 -10.90625 9.992188 -11.070312 9.703125 -11.1875 C 9.421875 -11.3125 9.140625 -11.40625 8.859375 -11.46875 C 8.585938 -11.53125 8.34375 -11.578125 8.125 -11.609375 Z M 5.96875 -11.90625 "/></g></g></g><g fill="#ffffff" fill-opacity="1"><g transform="translate(273.397537, 115.323294)"><g><path d="M 3.765625 0.65625 L 1.859375 0.328125 C 1.597656 0.273438 1.488281 0.113281 1.53125 -0.15625 L 3.96875 -14.1875 C 4.007812 -14.457031 4.160156 -14.566406 4.421875 -14.515625 L 6.328125 -14.1875 C 6.597656 -14.144531 6.710938 -13.988281 6.671875 -13.71875 L 5.671875 -7.9375 L 12.1875 -12.953125 C 12.269531 -13.023438 12.347656 -13.066406 12.421875 -13.078125 C 12.503906 -13.097656 12.597656 -13.101562 12.703125 -13.09375 L 15.171875 -12.65625 C 15.347656 -12.625 15.445312 -12.550781 15.46875 -12.4375 C 15.5 -12.332031 15.445312 -12.226562 15.3125 -12.125 L 8.15625 -6.609375 L 13.0625 1.765625 C 13.132812 1.910156 13.144531 2.023438 13.09375 2.109375 C 13.039062 2.203125 12.929688 2.234375 12.765625 2.203125 L 10.046875 1.734375 C 9.960938 1.722656 9.882812 1.691406 9.8125 1.640625 C 9.738281 1.597656 9.671875 1.53125 9.609375 1.4375 L 5.328125 -5.9375 L 4.234375 0.3125 C 4.191406 0.582031 4.035156 0.695312 3.765625 0.65625 Z M 3.765625 0.65625 "/></g></g></g><g fill="#ffffff" fill-opacity="1"><g transform="translate(290.596493, 118.375831)"><g><path d="M 9.8125 2 L 1.859375 0.375 C 1.585938 0.320312 1.476562 0.164062 1.53125 -0.09375 L 4.375 -14.0625 C 4.4375 -14.332031 4.601562 -14.441406 4.875 -14.390625 L 12.828125 -12.765625 C 13.085938 -12.710938 13.1875 -12.550781 13.125 -12.28125 L 12.796875 -10.671875 C 12.742188 -10.421875 12.585938 -10.320312 12.328125 -10.375 L 6.6875 -11.53125 L 5.625 -6.3125 L 10.484375 -5.3125 C 10.753906 -5.257812 10.863281 -5.097656 10.8125 -4.828125 L 10.5 -3.328125 C 10.445312 -3.066406 10.285156 -2.960938 10.015625 -3.015625 L 5.15625 -4.015625 L 4.65625 -1.546875 L 10.296875 -0.390625 C 10.554688 -0.335938 10.660156 -0.179688 10.609375 0.078125 L 10.28125 1.6875 C 10.226562 1.945312 10.070312 2.050781 9.8125 2 Z M 9.8125 2 "/></g></g></g><g fill="#ffffff" fill-opacity="1"><g transform="translate(305.388777, 121.445993)"><g><path d="M 6.171875 1.4375 L 4.25 0.984375 C 3.976562 0.921875 3.875 0.757812 3.9375 0.5 L 6.703125 -11.40625 L 3.546875 -12.140625 C 3.285156 -12.203125 3.179688 -12.359375 3.234375 -12.609375 L 3.609375 -14.21875 C 3.671875 -14.476562 3.832031 -14.578125 4.09375 -14.515625 L 13.140625 -12.40625 C 13.410156 -12.351562 13.515625 -12.195312 13.453125 -11.9375 L 13.078125 -10.328125 C 13.023438 -10.078125 12.863281 -9.976562 12.59375 -10.03125 L 9.421875 -10.78125 L 6.65625 1.125 C 6.59375 1.382812 6.429688 1.488281 6.171875 1.4375 Z M 6.171875 1.4375 "/></g></g></g><g fill="#ffffff" fill-opacity="1"><g transform="translate(319.515276, 124.793594)"><g><path d="M 3.71875 0.953125 L 1.828125 0.46875 C 1.566406 0.394531 1.46875 0.226562 1.53125 -0.03125 L 5.0625 -13.84375 C 5.125 -14.101562 5.285156 -14.195312 5.546875 -14.125 L 7.4375 -13.640625 C 7.707031 -13.578125 7.8125 -13.414062 7.75 -13.15625 L 4.21875 0.65625 C 4.15625 0.914062 3.988281 1.015625 3.71875 0.953125 Z M 3.71875 0.953125 "/></g></g></g><g fill="#ffffff" fill-opacity="1"><g transform="translate(328.735416, 127.13329)"><g><path d="M 3.65625 1.03125 L 1.828125 0.515625 C 1.578125 0.441406 1.488281 0.273438 1.5625 0.015625 L 5.453125 -13.75 C 5.554688 -14.09375 5.710938 -14.273438 5.921875 -14.296875 C 6.140625 -14.316406 6.332031 -14.171875 6.5 -13.859375 L 12.34375 -2.9375 L 14.640625 -11.09375 C 14.710938 -11.351562 14.878906 -11.445312 15.140625 -11.375 L 16.96875 -10.859375 C 17.226562 -10.785156 17.320312 -10.617188 17.25 -10.359375 L 13.359375 3.40625 C 13.265625 3.757812 13.101562 3.941406 12.875 3.953125 C 12.644531 3.960938 12.4375 3.800781 12.25 3.46875 L 6.53125 -7.625 L 4.15625 0.75 C 4.082031 1.007812 3.914062 1.101562 3.65625 1.03125 Z M 3.65625 1.03125 "/></g></g></g><g fill="#ffffff" fill-opacity="1"><g transform="translate(346.995913, 132.360472)"><g><path d="M 8.296875 3.046875 C 7.421875 2.765625 6.632812 2.382812 5.9375 1.90625 C 5.25 1.425781 4.660156 0.863281 4.171875 0.21875 C 3.691406 -0.414062 3.328125 -1.113281 3.078125 -1.875 C 2.828125 -2.644531 2.695312 -3.453125 2.6875 -4.296875 C 2.6875 -5.140625 2.828125 -6.007812 3.109375 -6.90625 C 3.398438 -7.800781 3.789062 -8.59375 4.28125 -9.28125 C 4.78125 -9.96875 5.351562 -10.546875 6 -11.015625 C 6.65625 -11.484375 7.363281 -11.832031 8.125 -12.0625 C 8.894531 -12.300781 9.703125 -12.414062 10.546875 -12.40625 C 11.390625 -12.394531 12.25 -12.25 13.125 -11.96875 C 14.269531 -11.601562 15.257812 -11.0625 16.09375 -10.34375 C 16.925781 -9.625 17.5625 -8.785156 18 -7.828125 C 18.113281 -7.597656 18.039062 -7.429688 17.78125 -7.328125 L 15.921875 -6.75 C 15.703125 -6.65625 15.53125 -6.726562 15.40625 -6.96875 C 15.125 -7.539062 14.71875 -8.054688 14.1875 -8.515625 C 13.664062 -8.972656 13.050781 -9.316406 12.34375 -9.546875 C 11.632812 -9.773438 10.941406 -9.863281 10.265625 -9.8125 C 9.585938 -9.757812 8.945312 -9.582031 8.34375 -9.28125 C 7.75 -8.976562 7.226562 -8.554688 6.78125 -8.015625 C 6.34375 -7.472656 6 -6.820312 5.75 -6.0625 C 5.507812 -5.289062 5.40625 -4.546875 5.4375 -3.828125 C 5.476562 -3.117188 5.648438 -2.460938 5.953125 -1.859375 C 6.265625 -1.253906 6.679688 -0.734375 7.203125 -0.296875 C 7.722656 0.128906 8.335938 0.457031 9.046875 0.6875 C 9.734375 0.90625 10.410156 0.988281 11.078125 0.9375 C 11.753906 0.894531 12.375 0.726562 12.9375 0.4375 L 13.375 -0.90625 L 10.265625 -1.90625 C 10.003906 -1.988281 9.914062 -2.160156 10 -2.421875 L 10.46875 -3.875 C 10.550781 -4.132812 10.722656 -4.222656 10.984375 -4.140625 L 16.140625 -2.484375 C 16.398438 -2.398438 16.488281 -2.226562 16.40625 -1.96875 L 15.109375 2.046875 C 15.054688 2.222656 14.945312 2.351562 14.78125 2.4375 C 13.882812 3 12.875 3.335938 11.75 3.453125 C 10.632812 3.566406 9.484375 3.429688 8.296875 3.046875 Z M 8.296875 3.046875 "/></g></g></g></svg>